<svg xmlns:xlink="http://www.w3.org/1999/xlink" xmlns="http://www.w3.org/2000/svg" viewBox="0 0 557.7865576796084 117.01908056980055" height="82.97687728350134" width="395.52"><g transform="matrix(1,0,0,1,162.2665576796084,36.16059441595441)"><svg viewBox="0 0 395.52 44.69789173789173" height="44.69789173789173" width="395.52"><g><svg viewBox="0 0 395.52 44.69789173789173" height="44.69789173789173" width="395.52"><g><svg viewBox="0 0 395.52 44.69789173789173" height="44.69789173789173" width="395.52"><g transform="matrix(1,0,0,1,0,0)"><svg width="395.52" viewBox="1.5 -35.1 315.87 35.7" height="44.69789173789173" data-palette-color="#8789fe"><path d="M40.95-34.5L46.15-34.5 39.4-1.45Q39.25-0.85 38.75-0.43 38.25 0 37.5 0L37.5 0 32.1 0Q31.35 0 30.83-0.43 30.3-0.85 30.2-1.5L30.2-1.5 25.1-26.8Q24.9-27.8 24.7-28.83 24.5-29.85 24.3-30.8L24.3-30.8 23.3-30.8Q23.1-29.85 22.93-28.8 22.75-27.75 22.55-26.8L22.55-26.8 17.5-1.5Q17.35-0.85 16.82-0.43 16.3 0 15.6 0L15.6 0 10.15 0Q9.4 0 8.88-0.43 8.35-0.85 8.25-1.45L8.25-1.45 1.5-34.5 6.7-34.5 11.75-8.15Q11.95-7.15 12.1-6.05 12.25-4.95 12.45-3.75L12.45-3.75 13.55-3.75Q13.75-4.9 13.95-6 14.15-7.1 14.35-8.15L14.35-8.15 19.4-32.9Q19.5-33.6 20.03-34.05 20.55-34.5 21.3-34.5L21.3-34.5 26.35-34.5Q27.1-34.5 27.6-34.05 28.1-33.6 28.25-32.9L28.25-32.9 33.3-8.15Q33.55-7 33.73-5.93 33.9-4.85 34-3.75L34-3.75 35.25-3.75Q35.35-4.85 35.5-5.95 35.65-7.05 35.85-8.1L35.85-8.1 40.95-34.5ZM51.85-34.5L56.85-34.5 56.85 0 51.85 0 51.85-34.5ZM75.15-35.1L75.15-35.1Q77.65-35.05 80.32-34.85 83-34.65 85.65-34.05L85.65-34.05 85.3-30.5Q83.15-30.6 80.47-30.65 77.8-30.7 75.3-30.7L75.3-30.7Q73.55-30.7 72.3-30.6 71.05-30.5 70.25-30.05 69.45-29.6 69.07-28.6 68.7-27.6 68.7-25.85L68.7-25.85Q68.7-23.2 69.7-22.13 70.7-21.05 72.95-20.5L72.95-20.5 79.9-18.65Q83.9-17.65 85.4-15.28 86.9-12.9 86.9-8.9L86.9-8.9Q86.9-5.9 86.22-4.05 85.55-2.2 84.12-1.2 82.7-0.2 80.45 0.2 78.2 0.6 75.1 0.6L75.1 0.6Q73.4 0.6 70.6 0.45 67.8 0.3 64.15-0.4L64.15-0.4 64.5-4.05Q67.45-3.95 69.32-3.88 71.2-3.8 72.55-3.8 73.9-3.8 75.25-3.8L75.25-3.8Q77.75-3.8 79.2-4.17 80.65-4.55 81.25-5.68 81.85-6.8 81.85-8.95L81.85-8.95Q81.85-10.8 81.42-11.85 81-12.9 80.07-13.43 79.15-13.95 77.7-14.3L77.7-14.3 70.55-16.25Q66.8-17.3 65.25-19.65 63.7-22 63.7-25.9L63.7-25.9Q63.7-28.9 64.37-30.75 65.05-32.6 66.45-33.52 67.85-34.45 70-34.77 72.15-35.1 75.15-35.1ZM93.54-34.5L98.54-34.5 98.54 0 93.54 0 93.54-34.5ZM98.14-20.5L114.29-20.5 114.29-16.35 98.14-16.35 98.14-20.5ZM113.74-34.5L118.79-34.5 118.79 0 113.74 0 113.74-34.5ZM127.04-34.5L131.99-34.5 131.99-7.3Q131.99-5.7 132.79-4.93 133.59-4.15 135.24-4.15L135.24-4.15 147.59-4.15 147.84-0.3Q144.49-0.05 141.04 0 137.59 0.05 134.14 0.05L134.14 0.05Q130.34 0.05 128.69-1.83 127.04-3.7 127.04-6.55L127.04-6.55 127.04-34.5ZM153.04-34.5L158.04-34.5 158.04 0 153.04 0 153.04-34.5ZM176.34-35.1L176.34-35.1Q178.84-35.05 181.51-34.85 184.19-34.65 186.84-34.05L186.84-34.05 186.49-30.5Q184.34-30.6 181.66-30.65 178.99-30.7 176.49-30.7L176.49-30.7Q174.74-30.7 173.49-30.6 172.24-30.5 171.44-30.05 170.64-29.6 170.26-28.6 169.89-27.6 169.89-25.85L169.89-25.85Q169.89-23.2 170.89-22.13 171.89-21.05 174.14-20.5L174.14-20.5 181.09-18.65Q185.09-17.65 186.59-15.28 188.09-12.9 188.09-8.9L188.09-8.9Q188.09-5.9 187.41-4.05 186.74-2.2 185.31-1.2 183.89-0.2 181.64 0.2 179.39 0.6 176.29 0.6L176.29 0.6Q174.59 0.6 171.79 0.45 168.99 0.3 165.34-0.4L165.34-0.4 165.69-4.05Q168.64-3.95 170.51-3.88 172.39-3.8 173.74-3.8 175.09-3.8 176.44-3.8L176.44-3.8Q178.94-3.8 180.39-4.17 181.84-4.55 182.44-5.68 183.04-6.8 183.04-8.95L183.04-8.95Q183.04-10.8 182.61-11.85 182.19-12.9 181.26-13.43 180.34-13.95 178.89-14.3L178.89-14.3 171.74-16.25Q167.99-17.3 166.44-19.65 164.89-22 164.89-25.9L164.89-25.9Q164.89-28.9 165.56-30.75 166.24-32.6 167.64-33.52 169.04-34.45 171.19-34.77 173.34-35.1 176.34-35.1ZM202.63-34.5L207.63-34.5 207.63 0 202.63 0 202.63-34.5ZM191.68-34.5L218.63-34.5 218.63-30.2 191.68-30.2 191.68-34.5ZM241.68-34.5L246.78-34.5Q247.43-34.5 247.93-34.13 248.43-33.75 248.63-33.15L248.63-33.15 259.53 0 254.33 0 245.73-27.75Q245.53-28.5 245.33-29.25 245.13-30 244.93-30.65L244.93-30.65 243.53-30.65Q243.33-30 243.13-29.25 242.93-28.5 242.68-27.75L242.68-27.75 234.08 0 228.93 0 239.83-33.15Q240.03-33.75 240.53-34.13 241.03-34.5 241.68-34.5L241.68-34.5ZM235.38-14.65L252.98-14.65 252.98-10.5 235.38-10.5 235.38-14.65ZM276.23-34.95L276.23-34.95Q280.48-34.95 282.98-34 285.48-33.05 286.55-30.7 287.63-28.35 287.63-24.05L287.63-24.05Q287.63-19.8 286.58-17.43 285.53-15.05 283.15-14.13 280.78-13.2 276.83-13.2L276.83-13.2Q274.68-13.2 272.7-13.3 270.73-13.4 269.08-13.6 267.43-13.8 266.25-14.03 265.08-14.25 264.63-14.45L264.63-14.45 264.78-17.35Q267.48-17.35 270.38-17.35 273.28-17.35 276.18-17.35L276.18-17.35Q278.58-17.4 279.98-17.95 281.38-18.5 281.98-19.95 282.58-21.4 282.58-24.05L282.58-24.05Q282.58-26.75 281.98-28.2 281.38-29.65 279.98-30.23 278.58-30.8 276.18-30.8L276.18-30.8Q271.98-30.8 268.93-30.75 265.88-30.7 264.83-30.6L264.83-30.6 264.13-34.5Q266.03-34.7 267.73-34.8 269.43-34.9 271.43-34.93 273.43-34.95 276.23-34.95ZM264.13-34.5L269.13-34.5 269.13 0 264.13 0 264.13-34.5ZM305.97-34.95L305.97-34.95Q310.22-34.95 312.72-34 315.22-33.05 316.3-30.7 317.37-28.35 317.37-24.05L317.37-24.05Q317.37-19.8 316.32-17.43 315.27-15.05 312.9-14.13 310.52-13.2 306.57-13.2L306.57-13.2Q304.42-13.2 302.45-13.3 300.47-13.4 298.82-13.6 297.17-13.8 296-14.03 294.82-14.25 294.37-14.45L294.37-14.45 294.52-17.35Q297.22-17.35 300.12-17.35 303.02-17.35 305.92-17.35L305.92-17.35Q308.32-17.4 309.72-17.95 311.12-18.5 311.72-19.95 312.32-21.4 312.32-24.05L312.32-24.05Q312.32-26.75 311.72-28.2 311.12-29.65 309.72-30.23 308.32-30.8 305.92-30.8L305.92-30.8Q301.72-30.8 298.67-30.75 295.62-30.7 294.57-30.6L294.57-30.6 293.87-34.5Q295.77-34.7 297.47-34.8 299.17-34.9 301.17-34.93 303.17-34.95 305.97-34.95ZM293.87-34.5L298.87-34.5 298.87 0 293.87 0 293.87-34.5Z" opacity="1" transform="matrix(1,0,0,1,0,0)" fill="#8789FE" class="undefined-text-0" data-fill-palette-color="primary" id="text-0"></path></svg></g></svg></g></svg></g></svg></g><g><svg viewBox="0 0 151.7144581896939 117.01908056980055" height="117.01908056980055" width="151.7144581896939"><g><svg xmlns="http://www.w3.org/2000/svg" xmlns:xlink="http://www.w3.org/1999/xlink" version="1.1" x="0" y="0" viewBox="1.9829999999999988 13 96.017 74.059" enable-background="new 0 0 100 100" xml:space="preserve" height="117.01908056980055" width="151.7144581896939" class="icon-icon-0" fill="#8789FE" data-fill-palette-color="accent" id="icon-0"><g fill="#8789FE"><path d="M91.978 87.059H8.008c-3.327 0-6.025-2.698-6.025-6.025 0-3.326 2.698-6.025 6.025-6.025h83.97c3.326 0 6.022 2.699 6.022 6.025C98 84.36 95.304 87.059 91.978 87.059z" fill="#8789FE" data-fill-palette-color="accent"></path><path d="M38.912 58.799H8.008c-3.327 0-6.025-2.699-6.025-6.025V19.025C1.983 15.699 4.681 13 8.008 13h30.904c3.326 0 6.025 2.699 6.025 6.025v33.749C44.937 56.1 42.238 58.799 38.912 58.799zM14.033 46.748h18.853V25.051H14.033V46.748z" fill="#8789FE" data-fill-palette-color="accent"></path><path d="M91.978 26.88H61.473c-3.327 0-6.026-2.699-6.026-6.026s2.699-6.025 6.026-6.025h30.505c3.326 0 6.022 2.698 6.022 6.025S95.304 26.88 91.978 26.88z" fill="#8789FE" data-fill-palette-color="accent"></path><path d="M91.978 56.969H61.473c-3.327 0-6.026-2.697-6.026-6.024s2.699-6.025 6.026-6.025h30.505c3.326 0 6.022 2.698 6.022 6.025S95.304 56.969 91.978 56.969z" fill="#8789FE" data-fill-palette-color="accent"></path></g></svg><g></g></g></svg></g></svg>