<svg xmlns:xlink="http://www.w3.org/1999/xlink" xmlns="http://www.w3.org/2000/svg" viewBox="0 0 151.7144581896939 117.01908056980055" height="117.01908056980055" width="151.7144581896939"><g><svg xmlns="http://www.w3.org/2000/svg" xmlns:xlink="http://www.w3.org/1999/xlink" version="1.1" x="0" y="0" viewBox="1.9829999999999988 13 96.017 74.059" enable-background="new 0 0 100 100" xml:space="preserve" height="117.01908056980055" width="151.7144581896939" class="icon-icon-0" fill="#8789FE" data-fill-palette-color="accent" id="icon-0"><g fill="#8789FE"><path d="M91.978 87.059H8.008c-3.327 0-6.025-2.698-6.025-6.025 0-3.326 2.698-6.025 6.025-6.025h83.97c3.326 0 6.022 2.699 6.022 6.025C98 84.36 95.304 87.059 91.978 87.059z" fill="#8789FE" data-fill-palette-color="accent"></path><path d="M38.912 58.799H8.008c-3.327 0-6.025-2.699-6.025-6.025V19.025C1.983 15.699 4.681 13 8.008 13h30.904c3.326 0 6.025 2.699 6.025 6.025v33.749C44.937 56.1 42.238 58.799 38.912 58.799zM14.033 46.748h18.853V25.051H14.033V46.748z" fill="#8789FE" data-fill-palette-color="accent"></path><path d="M91.978 26.88H61.473c-3.327 0-6.026-2.699-6.026-6.026s2.699-6.025 6.026-6.025h30.505c3.326 0 6.022 2.698 6.022 6.025S95.304 26.88 91.978 26.88z" fill="#8789FE" data-fill-palette-color="accent"></path><path d="M91.978 56.969H61.473c-3.327 0-6.026-2.697-6.026-6.024s2.699-6.025 6.026-6.025h30.505c3.326 0 6.022 2.698 6.022 6.025S95.304 56.969 91.978 56.969z" fill="#8789FE" data-fill-palette-color="accent"></path></g></svg><g></g></g></svg>